<?xml version="1.0"?><svg xmlns="http://www.w3.org/2000/svg" xmlns:xlink="http://www.w3.org/1999/xlink" version="1.1" viewBox="0 0 24 24" style="enable-background:new 0 0 24 24;" xml:space="preserve"><style type="text/css">
	.st0{opacity:0.2;fill:none;stroke:#000000;stroke-width:0.05;stroke-miterlimit:10;}
</style><g id="Layer_1"/><g id="Layer_2"><g><path d="M18,14c-2.20557,0-4,1.79395-4,4s1.79443,4,4,4s4-1.79395,4-4S20.20557,14,18,14z M18,20c-1.10303,0-2-0.89746-2-2    s0.89697-2,2-2s2,0.89746,2,2S19.10303,20,18,20z"/><path d="M6,22c2.20557,0,4-1.79395,4-4s-1.79443-4-4-4s-4,1.79395-4,4S3.79443,22,6,22z M6,16c1.10303,0,2,0.89746,2,2    s-0.89697,2-2,2s-2-0.89746-2-2S4.89697,16,6,16z"/><path d="M17.5,9C19.42969,9,21,7.42969,21,5.5S19.42969,2,17.5,2c-1.78119,0-3.23962,1.34283-3.45612,3.06628    c-3.69025,0.32568-6.94049,2.49054-8.62152,5.85266c-0.20947,0.41895-0.22656,0.90723-0.04785,1.33984    c0.1792,0.43262,0.53711,0.76563,0.98047,0.91309l0.58496,0.19531C9.36865,14.17676,11,16.44043,11,19c0,0.55273,0.44775,1,1,1    s1-0.44727,1-1c0-3.42188-2.18115-6.44727-5.42676-7.5293L7.4209,11.41992c0.74823-1.32703,1.81097-2.39911,3.06403-3.15863    c1.22552,2.37683,3.66467,3.85883,6.30609,3.85883c0.46436,0,0.93506-0.0459,1.40527-0.13965    c0.5415-0.1084,0.89258-0.63477,0.78418-1.17676s-0.63281-0.89746-1.17676-0.78418    c-2.20282,0.43951-4.39056-0.60883-5.49017-2.58282c0.66016-0.21277,1.3493-0.34485,2.06006-0.39526    C14.94604,8.19659,16.12598,9,17.5,9z M17.5,4C18.32715,4,19,4.67285,19,5.5S18.32715,7,17.5,7S16,6.32715,16,5.5    S16.67285,4,17.5,4z"/></g></g></svg>