<?xml version="1.0"?><svg id="car" style="enable-background:new 0 0 128 128;" version="1.1" viewBox="0 0 128 128" xml:space="preserve" xmlns="http://www.w3.org/2000/svg" xmlns:xlink="http://www.w3.org/1999/xlink"><style type="text/css">
	.st0{fill:#3AD0F9;}
	.st1{opacity:0.4;fill:#FFFFFF;}
	.st2{fill:#7C4119;}
	.st3{fill:#FFFFFF;}
	.st4{fill:#F74541;}
	.st5{fill:#D4D6D6;}
	.st6{fill:#937554;}
	.st7{opacity:0.5;fill:#FFFFFF;}
</style><g><circle class="st0" cx="64" cy="64" r="64"/><path class="st1" d="M110,43.2H84V14H63v34H49V33H17l0,24H0.7c-0.3,2.5-0.5,4.5-0.5,7c0,16.2,6,30.9,15.9,42.2h96.2   c9.9-11.3,15.7-26,15.7-42.2c0-2.6-0.3-7-0.3-7H110V43.2z"/><path class="st2" d="M118.8,107H11.3c-0.6,0-1-0.4-1-1s0.4-1,1-1h107.6c0.6,0,1,0.4,1,1S119.4,107,118.8,107z"/><path class="st3" d="M118.7,98.1c0,0,7.8,2,7.8-4s1-12-8.7-15s-14.5-3-19.4-6c-4.8-3-11.6-11-28.1-13c-16.5-2-37.8,2-49.4,7   c-11.6,5-14.5,4-14.5,4l-1.9,13c0,0-1.9,2-1.9,5s2.9,8,8.7,9c5.8,1,34.9,0,34.9,0H118.7z"/><path class="st4" d="M116.3,78.9c-3,0-3,3.3,0,5.3c3,2,8.4,2,8.4,0C124.7,84.1,122.7,78.9,116.3,78.9z"/><path class="st5" d="M118.7,88H46c0,0-29.1,0.4-34.9-0.6c-3.1-0.5-5.3-1.6-6.8-3.5l0,0.2c0,0-1.9,2-1.9,5s2.9,8,8.7,9   c5.8,1,34.9,0,34.9,0h72.7c0,0,7.8,2,7.8-4c0-2.7,0.2-5.5-0.5-7.9C124.2,89.4,118.7,88,118.7,88z"/><path class="st6" d="M63.7,73.4c14.1,0.8,31.2,3.7,31.2,3.7s-7.1-8-15.2-11c-7.2-2.7-19.1-2.8-28.1-2.3   c-10.9,0.6-20.9,3.5-20.9,3.5l1.5,5.7C32.1,73,49.6,72.6,63.7,73.4z"/><path class="st2" d="M22.5,99.4c-6.1,0-10.1-0.2-11.9-0.5C4.1,97.8,1,92.3,1,89c0-2.8,1.4-4.8,2-5.5l1.9-12.9   c0-0.3,0.2-0.6,0.5-0.7c0.3-0.2,0.6-0.2,0.8-0.1c0,0,0.2,0,0.5,0c1.2,0,4.9-0.4,13.4-4.1C29,61.9,45.1,58,61,58   c3.4,0,6.5,0.2,9.5,0.5c13.4,1.6,20.7,7.2,25.5,11c1.2,1,2.3,1.8,3.3,2.4c2.9,1.8,5.8,2.5,9.9,3.5c2.6,0.6,5.6,1.3,9.4,2.5   c9.7,3,9.6,9.2,9.5,14.7c0,0.5,0,1,0,1.5c0,2.4-1.1,3.7-2.1,4.3c-1,0.7-2.3,1-3.8,1l0,0c-1.4,0-2.7-0.3-3.1-0.4H45.9   C45.8,99,32.8,99.4,22.5,99.4z M6.8,71.8L5,84.1c0,0.2-0.1,0.4-0.3,0.6c0,0-1.7,1.8-1.7,4.4c0,2.3,2.3,7,7.9,8   c1.7,0.3,5.6,0.4,11.5,0.4c10.3,0,23.3-0.4,23.4-0.4l73.3,0c0.1,0,0.2,0,0.3,0c0,0,1.3,0.3,2.7,0.3l0,0c1.1,0,2.1-0.2,2.7-0.6   c0.8-0.5,1.2-1.4,1.2-2.6c0-0.5,0-1,0-1.5c0.1-5.4,0.1-10.2-8.1-12.7c-3.7-1.2-6.6-1.9-9.3-2.5c-4.3-1-7.3-1.8-10.5-3.7   c-1.1-0.7-2.2-1.5-3.4-2.5c-4.6-3.6-11.6-9-24.5-10.5c-2.9-0.3-6-0.5-9.2-0.5c-15.6,0-31.3,3.8-40,7.6C12.5,71.3,8.4,71.8,6.8,71.8   z"/><circle class="st6" cx="30.4" cy="94.7" r="10.6"/><circle class="st3" cx="30.4" cy="94.7" r="5.5"/><path class="st2" d="M30.5,101c-3.6,0-6.5-2.9-6.5-6.5c0-3.6,2.9-6.5,6.5-6.5c3.6,0,6.5,2.9,6.5,6.5C37,98.1,34.1,101,30.5,101z    M30.5,90C28,90,26,92,26,94.5c0,2.5,2,4.5,4.5,4.5c2.5,0,4.5-2,4.5-4.5C35,92,33,90,30.5,90z"/><circle class="st6" cx="105.7" cy="94.7" r="10.6"/><circle class="st3" cx="105.7" cy="94.7" r="5.5"/><path class="st2" d="M105.5,101c-3.6,0-6.5-2.9-6.5-6.5c0-3.6,2.9-6.5,6.5-6.5c3.6,0,6.5,2.9,6.5,6.5C112,98.1,109.1,101,105.5,101   z M105.4,90c-2.5,0-4.6,2-4.6,4.5c0,2.5,2.1,4.5,4.6,4.5s4.6-2,4.6-4.5C110,92,107.9,90,105.4,90z"/><path class="st2" d="M94.9,78.1c-0.1,0-0.1,0-0.2,0c-0.2,0-17.2-3-31-3.8c-7.5-0.5-16.1-0.6-21.9-0.6c-5.5,0-9.4,0.1-9.4,0.1   c-0.5,0-0.9-0.3-1-0.8L30,67.2c-0.1-0.5,0.2-1.1,0.7-1.3c0.1,0,10.2-3,21-3.7c2.7-0.2,5.4-0.2,8-0.2c6.1,0,14.5,0.5,20.4,2.7   c7.8,3,14.5,10.5,15.5,11.6c0.2,0.2,0.4,0.5,0.4,0.8C96,77.7,95.5,78.1,94.9,78.1C95,78.1,94.9,78.1,94.9,78.1z M41.9,71.8   c5.9,0,14.4,0,22,0.4c10.4,0.6,22.6,2.5,28.2,3.4c-2.6-2.6-7.5-6.9-12.7-8.9c-5.6-2.1-13.8-2.6-19.7-2.6c-2.6,0-5.2,0.1-7.9,0.2   c-8.7,0.5-16.9,2.6-19.7,3.3l1,4.1C34.7,71.7,37.9,71.8,41.9,71.8z"/><path class="st4" d="M7.2,72.1c0,0,2.7,0.5,6.3,0.8c3.6,0.3,3.6,0.3,3.6,0.3l-4.4,7.2c0,0-1.7-1.2-7.1-2"/><path class="st2" d="M88.7,95H45.3c-0.5,0-1-0.4-1-1c0,0-0.2-4.7-2.7-7.7c-3.1-3.5-7.9-5.1-8-5.2c-0.3-0.1-0.6-0.4-0.7-0.7l-2-8.1   c-0.1-0.5,0.2-1.1,0.7-1.2c0.5-0.1,1.1,0.2,1.2,0.7l1.9,7.6c1.4,0.5,5.5,2.3,8.3,5.6c2.3,2.6,2.9,6.2,3.1,7.9h41.5   c0.2-2.6,1.2-9.9,5.9-16c0.3-0.4,1-0.5,1.4-0.2c0.4,0.3,0.5,1,0.2,1.4c-5.3,6.8-5.5,15.7-5.5,15.8C89.7,94.6,89.2,95,88.7,95z"/><path class="st2" d="M60.7,95c-0.5,0-1-0.4-1-1c-0.5-20.4-2-30.2-2-30.3c-0.1-0.5,0.3-1.1,0.8-1.1c0.5-0.1,1.1,0.3,1.1,0.8   c0,0.1,1.5,10.1,2,30.5C61.7,94.5,61.3,95,60.7,95C60.7,95,60.7,95,60.7,95z"/><path class="st2" d="M68.5,79C68.5,79,68.5,79,68.5,79l-4.1-0.3c-0.6,0-1-0.5-0.9-1.1c0-0.6,0.5-1,1.1-0.9l4,0.3   c0.6,0,1,0.5,0.9,1.1C69.5,78.6,69.1,79,68.5,79z"/><path class="st2" d="M41.4,77.7h-3.7c-0.6,0-1-0.4-1-1c0-0.6,0.4-1,1-1h3.7c0.6,0,1,0.4,1,1C42.4,77.3,42,77.7,41.4,77.7z"/><path class="st2" d="M12.6,81.5c-0.2,0-0.4-0.1-0.6-0.2c0,0-1.7-1.1-6.7-1.8c-0.5-0.1-0.9-0.6-0.8-1.1c0.1-0.5,0.6-0.9,1.1-0.8   c3.5,0.5,5.5,1.2,6.6,1.7l3.1-5l-2-0.2c-3.6-0.3-6.2-0.8-6.4-0.8C6.5,73,6.1,72.5,6.2,72c0.1-0.5,0.6-0.9,1.2-0.8   c0,0,2.7,0.5,6.2,0.8l3.6,0.3c0.3,0,0.6,0.2,0.8,0.5c0.2,0.3,0.1,0.7,0,1L13.5,81c-0.1,0.2-0.4,0.4-0.6,0.5   C12.7,81.5,12.7,81.5,12.6,81.5z"/><path class="st2" d="M21.5,89C21.5,89,21.5,89,21.5,89C8.2,88.5,4.3,85.2,4.2,85.1c-0.4-0.4-0.5-1-0.1-1.4c0.4-0.4,1-0.5,1.4-0.1   c0.1,0.1,3.8,3,16.1,3.4c0.6,0,1,0.5,1,1C22.5,88.5,22.1,89,21.5,89z"/><path class="st2" d="M122.9,99.3c-0.2,0-0.4-0.1-0.6-0.2c-2.5-2-3.2-4.5-2-7.1c1.3-2.8,4.5-2.3,6-1.7c0.5,0.2,0.7,0.8,0.5,1.3   c-0.2,0.5-0.8,0.7-1.3,0.5c-0.1,0-2.6-1.1-3.4,0.6c-0.8,1.8-0.3,3.3,1.5,4.7c0.4,0.3,0.5,1,0.2,1.4   C123.5,99.2,123.2,99.3,122.9,99.3z"/><path class="st3" d="M95.9,77.1c0,1.7-1.4,3.1-3.1,3.1h-4.3c-1.7,0-3.1-1.4-3.1-3.1l0,0c0-1.7,1.4-3.1,3.1-3.1h4.3   C94.6,74,95.9,75.4,95.9,77.1L95.9,77.1z"/><path class="st3" d="M53,19c0-1.1-1.3-2-3-2H37c-1.7,0-3,0.9-3,2s-1.3,2-3,2l0,0c-1.7,0-3,0.9-3,2s1.3,2,3,2h10.9c1.7,0,3-0.9,3-2   c0-1.1,1.4-2,3-2h2C51.7,21,53,20.1,53,19z"/><path class="st2" d="M30.5,106c-6.3,0-11.5-5.2-11.5-11.5C19,88.2,24.2,83,30.5,83C36.8,83,42,88.2,42,94.5   C42,100.8,36.8,106,30.5,106z M30.5,85c-5.2,0-9.5,4.3-9.5,9.5c0,5.2,4.3,9.5,9.5,9.5c5.2,0,9.5-4.3,9.5-9.5   C40,89.3,35.7,85,30.5,85z"/><path class="st5" d="M92.9,77.7h-4.3c-1.3,0-2.3-0.8-2.8-1.8c-0.2,0.4-0.3,0.8-0.3,1.2c0,1.7,1.4,3.1,3.1,3.1h4.3   c1.7,0,3.1-1.4,3.1-3.1c0-0.4-0.1-0.9-0.3-1.2C95.2,76.9,94.1,77.7,92.9,77.7z"/><path class="st2" d="M105.6,106c-6.3,0-11.4-5.2-11.4-11.5c0-6.3,5.1-11.5,11.4-11.5c6.3,0,11.4,5.2,11.4,11.5   C117,100.8,111.9,106,105.6,106z M105.6,85c-5.2,0-9.5,4.3-9.5,9.5c0,5.2,4.2,9.5,9.5,9.5c5.2,0,9.5-4.3,9.5-9.5   C115,89.3,110.8,85,105.6,85z"/><path class="st2" d="M92.9,81h-4.3c-2.3,0-4.1-1.7-4.1-3.9c0-2.3,1.8-4.1,4.1-4.1h4.3c2.3,0,4.1,1.8,4.1,4.1   C96.9,79.3,95.2,81,92.9,81z M88.5,75c-1.1,0-2.1,0.9-2.1,2.1c0,1.1,0.9,1.9,2.1,1.9h4.3c1.2,0,2.1-0.8,2.1-1.9   c0-1.2-0.9-2.1-2.1-2.1H88.5z"/><path class="st2" d="M121.6,86.6c-2,0-4.3-0.6-5.9-1.7c-2.1-1.4-3.2-3.6-2.6-5.3c0.4-1.3,1.6-1.9,3.2-1.8c0.5,0.1,1,0.5,0.9,1.1   c-0.1,0.5-0.6,0.9-1.1,0.9c-0.6-0.1-1,0.1-1.1,0.4c-0.2,0.6,0.2,2,1.8,3c1.9,1.2,4.8,1.6,6.3,1.2c0.4-0.1,0.6-0.3,0.6-0.3   c0-0.6,0.4-1,1-1c0.6,0,1,0.4,1,1c0,0.8-0.4,1.5-1.3,1.9C123.7,86.5,122.7,86.6,121.6,86.6z"/><path class="st3" d="M102,32c-2.2,0-4-1.8-4-4c0-2.2,1.8-4,4-4c2.2,0,4,1.8,4,4C106,30.2,104.2,32,102,32z M102,25.9   c-1.2,0-2.1,0.9-2.1,2.1c0,1.2,1,2.1,2.1,2.1c1.2,0,2.1-0.9,2.1-2.1C104.1,26.9,103.2,25.9,102,25.9z"/><path class="st3" d="M25,50c-2.2,0-4-1.8-4-4c0-2.2,1.8-4,4-4c2.2,0,4,1.8,4,4C29,48.2,27.2,50,25,50z M25,43.9   c-1.2,0-2.1,1-2.1,2.1c0,1.2,1,2.1,2.1,2.1c1.2,0,2.1-1,2.1-2.1C27.1,44.8,26.2,43.9,25,43.9z"/><path class="st3" d="M106.3,57.1c0-0.4-0.4-0.8-1-0.9l-1.9-0.3c-0.5-0.1-1.1-0.6-1.1-1.1L102,53c-0.1-0.5-0.5-1-0.9-1   s-0.8,0.4-0.9,1l-0.3,1.9c-0.1,0.5-0.6,1.1-1.1,1.1L97,56.3c-0.5,0.1-1,0.5-1,0.9c0,0.4,0.4,0.8,1,0.9l1.9,0.3   c0.5,0.1,1.1,0.6,1.1,1.1l0.3,1.9c0.1,0.5,0.5,1,0.9,1s0.8-0.4,0.9-1l0.3-2.1c0.1-0.5,0.6-1,1.1-1.1l1.8-0.1   C105.8,57.9,106.3,57.5,106.3,57.1z"/><path class="st7" d="M83.9,72.7c-0.2,0-0.4-0.1-0.6-0.2c0,0-1.3-1.1-3.9-2c-0.5-0.2-0.8-0.8-0.6-1.3c0.2-0.5,0.8-0.8,1.3-0.6   c2.9,1.1,4.4,2.3,4.5,2.3c0.4,0.3,0.5,1,0.1,1.4C84.4,72.6,84.2,72.7,83.9,72.7z"/><path class="st7" d="M76.2,69.4c-0.1,0-0.2,0-0.3,0c-3.1-0.9-7.2-1.5-12.7-1.8c-0.6,0-1-0.5-0.9-1.1c0-0.6,0.5-1,1.1-0.9   c5.6,0.3,9.9,0.9,13.1,1.9c0.5,0.2,0.8,0.7,0.7,1.2C77,69.1,76.6,69.4,76.2,69.4z"/><path class="st7" d="M34.6,70.4c-0.4,0-0.8-0.3-1-0.7c-0.1-0.5,0.2-1.1,0.7-1.2c0.3-0.1,8.5-2.4,19.9-2.9c0.5,0,1,0.4,1,1   c0,0.6-0.4,1-1,1C43.2,68,35,70.3,34.9,70.3C34.8,70.3,34.7,70.4,34.6,70.4z"/><path class="st7" d="M105.7,103.7c-0.6,0-1-0.4-1-1c0-0.6,0.4-1,1-1c1.1,0,2.1-0.2,3-0.7c0.5-0.2,1.1,0,1.3,0.5   c0.2,0.5,0,1.1-0.5,1.3C108.4,103.4,107.1,103.7,105.7,103.7z"/><path class="st7" d="M112.4,100.2c-0.2,0-0.4-0.1-0.6-0.2c-0.5-0.3-0.6-0.9-0.3-1.4c0.8-1.2,1.2-2.5,1.2-3.9c0-3.9-3.1-7-7-7   c-1.7,0-3.3,0.6-4.6,1.7c-0.4,0.4-1,0.3-1.4-0.1c-0.4-0.4-0.3-1,0.1-1.4c1.6-1.4,3.7-2.2,5.9-2.2c5,0,9,4,9,9c0,1.8-0.5,3.5-1.5,5   C113,100,112.7,100.2,112.4,100.2z"/><path class="st7" d="M38.5,95.7c-0.6,0-1-0.4-1-1c0-3.9-3.2-7.1-7.1-7.1c-2,0-3.9,0.8-5.2,2.3c-0.4,0.4-1,0.4-1.4,0.1   c-0.4-0.4-0.4-1-0.1-1.4c1.7-1.9,4.2-3,6.7-3c5,0,9.1,4.1,9.1,9.1C39.5,95.3,39.1,95.7,38.5,95.7z"/><path class="st7" d="M22.3,95.7c-0.6,0-1-0.4-1-1c0-1.3,0.3-2.5,0.8-3.7c0.2-0.5,0.8-0.7,1.3-0.5c0.5,0.2,0.7,0.8,0.5,1.3   c-0.4,0.9-0.6,1.9-0.6,2.9C23.3,95.3,22.9,95.7,22.3,95.7z"/><path class="st3" d="M16.5,91.4C16.5,91.4,16.5,91.4,16.5,91.4C8,90.6,6,89.2,5.7,89c-0.4-0.4-0.5-1-0.1-1.4c0.3-0.4,1-0.5,1.4-0.1   c0.1,0.1,2,1.3,9.6,2c0.5,0.1,1,0.5,0.9,1.1C17.5,91.1,17,91.4,16.5,91.4z"/></g></svg>