<?xml version="1.0"?><svg xmlns="http://www.w3.org/2000/svg" xmlns:xlink="http://www.w3.org/1999/xlink" version="1.1" viewBox="0 0 512 512" style="enable-background:new 0 0 512 512;" xml:space="preserve"><g id="_x33_7_x2C__Hot_Dog_x2C__Food_and_Restaurant_x2C__Cultures_x2C__Junk_Food_x2C__Sausage"><g><path style="fill:#FAF0AF;" d="M458.6,142.54c35.81,35.81,35.81,93.86,0,129.67L272.21,458.6c-35.81,35.81-93.86,35.81-129.67,0    L270,258.25L458.6,142.54z"/><path style="fill:#FAF0AF;" d="M369.46,53.4L238.667,234.667L53.4,369.46c-35.81-35.81-35.81-93.86,0-129.67L239.79,53.4    C275.6,17.59,333.65,17.59,369.46,53.4z"/><path style="fill:#DD5113;" d="M484.54,38.82c21.48,21.48,21.48,56.3,0,77.78l-25.94,25.94L142.54,458.6l-25.94,25.94    c-21.48,21.48-56.3,21.48-77.78,0l-11.36-11.36c-21.48-21.48-21.48-56.3,0-77.78l25.94-25.94L369.46,53.4l25.94-25.94    c21.48-21.48,56.3-21.48,77.78,0L484.54,38.82z"/><g><g><path d="M491.614,123.673c25.408-25.406,25.4-66.526-0.001-91.925l-11.362-11.362c-25.404-25.406-66.525-25.401-91.924,0      l-19.218,19.218c-39.906-32.776-99.126-30.538-136.388,6.723L46.327,232.721c-37.261,37.261-39.5,96.483-6.723,136.388      l-19.218,19.218c-25.407,25.405-25.4,66.524,0,91.925l11.362,11.362c25.406,25.406,66.526,25.401,91.925,0l19.218-19.218      c39.854,32.734,99.072,30.591,136.388-6.723l186.394-186.394c37.261-37.261,39.5-96.483,6.723-136.388L491.614,123.673z       M60.47,246.863L246.863,60.47c29.454-29.454,75.979-31.647,108.003-6.623L53.847,354.866      C28.823,322.842,31.015,276.317,60.47,246.863z M109.53,477.472c-17.588,17.589-46.056,17.586-63.64,0l-11.362-11.362      c-17.589-17.587-17.586-46.055,0-63.64L402.47,34.528c17.589-17.591,46.055-17.585,63.64,0l11.362,11.362      c17.589,17.587,17.586,46.055,0,63.64L109.53,477.472z M451.53,265.137L265.137,451.53      c-29.454,29.454-75.979,31.647-108.003,6.623l301.019-301.02C483.177,189.158,480.985,235.683,451.53,265.137z"/><path d="M172.979,351.711c11.085-3.775,23.649-8.055,39.67-24.075c16.02-16.021,20.299-28.584,24.074-39.668      c3.517-10.326,6.554-19.244,19.284-31.975c12.729-12.729,21.647-15.767,31.973-19.283c11.085-3.775,23.648-8.054,39.668-24.073      c16.019-16.02,20.297-28.582,24.072-39.667c3.517-10.325,6.553-19.242,19.282-31.972s21.646-15.767,31.973-19.283      c11.085-3.774,23.648-8.053,39.668-24.072c3.905-3.905,3.905-10.237,0-14.143c-3.906-3.904-10.236-3.904-14.143,0      c-12.729,12.729-21.646,15.767-31.973,19.283c-11.085,3.774-23.648,8.053-39.668,24.072      c-16.019,16.02-20.297,28.583-24.072,39.667c-3.517,10.325-6.553,19.243-19.282,31.972      c-12.729,12.729-21.646,15.767-31.973,19.283c-11.084,3.775-23.647,8.054-39.668,24.073      c-16.02,16.02-20.299,28.584-24.074,39.669c-3.517,10.326-6.554,19.244-19.284,31.974      c-12.73,12.731-21.648,15.769-31.976,19.286c-11.085,3.775-23.648,8.055-39.67,24.075c-16.021,16.021-20.3,28.585-24.075,39.67      C99.269,406.851,96.23,415.77,83.5,428.5c-3.905,3.905-3.905,10.237,0,14.143c3.906,3.904,10.235,3.905,14.143,0      c16.021-16.021,20.3-28.585,24.075-39.67c3.517-10.326,6.555-19.245,19.285-31.976      C153.733,358.266,162.652,355.229,172.979,351.711z"/><circle cx="219.53" cy="138.492" r="10"/><circle cx="179.01" cy="179.014" r="10"/><circle cx="138.49" cy="219.532" r="10"/><circle cx="373.51" cy="292.467" r="10"/><circle cx="332.99" cy="332.987" r="10"/><circle cx="292.47" cy="373.511" r="10"/></g></g></g></g><g id="Layer_1"/></svg>