<?xml version="1.0"?><svg style="enable-background:new 0 0 44 44;" version="1.1" viewBox="0 0 44 44" xml:space="preserve" xmlns="http://www.w3.org/2000/svg" xmlns:xlink="http://www.w3.org/1999/xlink"><g id="page_x5F_settings"/><g id="pc_x5F_report"/><g id="chat"/><g id="marketing"/><g id="analytics"/><g id="search_1_"/><g id="funnel"/><g id="tag"/><g id="eye_x5F_tracking"/><g id="report"/><g id="localisation"><g><path d="M22,36c-7.117,0-11,1.982-11,3c0,1.018,3.883,3,11,3s11-1.982,11-3C33,37.982,29.117,36,22,36z" style="fill:#D3E2EC;"/><path d="M22,44c-6.46,0-13-1.717-13-5c0-3.283,6.54-5,13-5s13,1.717,13,5C35,42.283,28.46,44,22,44z M22,36    c-7.117,0-11,1.982-11,3c0,1.018,3.883,3,11,3s11-1.982,11-3C33,37.982,29.117,36,22,36z" style="fill:#004463;"/><g><path d="M31.703,37.761C30.02,36.875,26.729,36,22,36v4L31.703,37.761z" style="fill:#AFC3D7;"/></g><path d="M35,15.05c0-3.682-1.535-7.173-4.212-9.631c-2.713-2.491-6.241-3.69-9.938-3.371    C15.12,2.54,10.223,7.026,9.204,12.715c-0.167,0.928-0.231,1.869-0.194,2.796c0.077,1.915,0.734,3.896,1.9,5.732L21.307,37.62    c0.303,0.477,1.082,0.477,1.385,0l10.589-16.678C34.402,19.178,34.996,17.141,35,15.05z M22,21c-3.309,0-6-2.691-6-6s2.691-6,6-6    s6,2.691,6,6S25.308,21,22,21z" style="fill:#EF4C4E;"/><path d="M22,40c-0.971,0-1.86-0.489-2.381-1.308L9.222,22.316c-1.354-2.132-2.118-4.457-2.209-6.723    c-0.043-1.073,0.032-2.159,0.224-3.23C8.43,5.693,13.957,0.632,20.679,0.056l0,0c4.261-0.358,8.331,1.016,11.462,3.89    C35.229,6.781,37,10.809,37,14.999c-0.005,2.524-0.707,4.931-2.03,7.015L24.381,38.692C23.86,39.511,22.971,40,22,40z     M20.849,2.049C15.12,2.54,10.223,7.026,9.204,12.715c-0.167,0.928-0.231,1.869-0.194,2.796c0.077,1.915,0.734,3.896,1.9,5.732    L21.307,37.62c0.303,0.477,1.082,0.477,1.385,0l10.589-16.678c1.121-1.764,1.715-3.801,1.719-5.892    c0-3.682-1.535-7.173-4.212-9.631C28.075,2.929,24.547,1.73,20.849,2.049L20.849,2.049z M20.764,1.052h0.01H20.764z M22,21    c-3.309,0-6-2.691-6-6s2.691-6,6-6s6,2.691,6,6S25.308,21,22,21z M22,10.999c-2.206,0-4,1.794-4,4s1.794,4,4,4s4-1.794,4-4    S24.205,10.999,22,10.999z" style="fill:#004463;"/><g><path d="M16,14.999c0-3.314,2.686-6,6-6c1.402,0,2.688,0.485,3.71,1.29c-1.099-1.393-2.798-2.29-4.71-2.29     c-3.314,0-6,2.686-6,6c0,1.912,0.897,3.611,2.29,4.71C16.484,17.688,16,16.401,16,14.999z" style="fill:#DB3440;"/></g><g><path d="M30.789,5.42c-0.234-0.215-0.482-0.407-0.729-0.603C31.937,7.124,33,10.029,33,13.073     c-0.005,2.09-0.599,4.128-1.718,5.892c0,0-3.655,5.697-6.759,10.491C22.876,32.002,22,34.967,22,38v0     c0.266,0,0.531-0.127,0.693-0.381l10.59-16.677c1.119-1.764,1.713-3.802,1.718-5.892C35,11.369,33.465,7.877,30.789,5.42z" style="fill:#DB3440;"/></g></g></g><g id="mobile"/><g id="intenet"/><g id="pie_x5F_chart"/><g id="page_x5F_search"/><g id="code"/><g id="code_x5F_check"/><g id="link"/><g id="monetisation"/><g id="connection"/><g id="server"/><g id="white_x5F_hat"/><g id="ppk"/><g id="page_x5F_test"/><g id="money"/><g id="page_x5F_quality"/><g id="page_x5F_speed"/><g id="money_x5F_bag"/><g id="trolley"/><g id="adaptive"/><g id="console"/><g id="briefcase"/><g id="cloud"/><g id="chess"/><g id="stopwatch"/><g id="test"/><g id="user"/><g id="social"/><g id="like"/><g id="crown"/><g id="target"/><g id="images"/><g id="calendar"/><g id="newspaper"/><g id="pencil"/><g id="email"/><g id="rocket"/><g id="trophy"/><g id="shop"/><g id="support"/></svg>