<?xml version="1.0"?><svg enable-background="new 0 0 60 60" id="Layer_1" version="1.1" viewBox="0 0 60 60" xml:space="preserve" xmlns="http://www.w3.org/2000/svg" xmlns:xlink="http://www.w3.org/1999/xlink"><g><g><circle cx="42.48" cy="11" fill="#FFD23F" r="4"/><path d="M42.48,16c-2.76,0-5-2.24-5-5s2.24-5,5-5s5,2.24,5,5S45.24,16,42.48,16z M42.48,8c-1.65,0-3,1.35-3,3s1.35,3,3,3    s3-1.35,3-3S44.14,8,42.48,8z"/></g><g><path d="M48.96,52.78c-0.16,0.04-0.33,0.05-0.49,0.05c-1.06,0-2.01-0.74-2.23-1.82l-1.57-7.61    c-0.14-0.71-0.36-1.4-0.65-2.06l-3.67-8.48l0.42,5.86c0.15,2.06-0.19,4.13-0.99,6.04l-2.9,6.92c-0.47,1.13-1.79,1.64-2.89,1.12    c-0.78-0.37-1.24-1.14-1.24-1.95c0-0.3,0.06-0.6,0.19-0.88l2.61-5.84c0.83-1.86,1.22-3.9,1.14-5.95L36.1,24.5l-4.87,7.3    c-0.54,0.81-1.55,1.1-2.41,0.78c-0.2-0.07-0.39-0.18-0.57-0.32c-0.51-0.41-0.77-1-0.77-1.6c0-0.44,0.14-0.87,0.42-1.24l7.92-10.35    c0.54-0.71,1.42-1.09,2.31-0.99l5.42,0.6c1.36,0.15,2.36,1.35,2.27,2.71l-0.32,4.88l-0.28,4.1l-0.2,3.05l3.22,6.66    c0.37,0.75,0.64,1.55,0.82,2.36l1.66,7.62C50.98,51.3,50.2,52.52,48.96,52.78z" fill="#FFD23F"/><path d="M34.9,54c-0.46,0-0.91-0.1-1.33-0.3c-1.1-0.52-1.81-1.64-1.81-2.85c0-0.46,0.1-0.9,0.28-1.3l2.6-5.83    c0.76-1.71,1.13-3.61,1.05-5.5L35.23,27.6l-3.17,4.75c-0.79,1.18-2.26,1.66-3.59,1.16c-0.28-0.1-0.56-0.26-0.83-0.47    c-0.74-0.59-1.16-1.46-1.16-2.39c0-0.67,0.22-1.3,0.62-1.84l7.92-10.35c0.75-0.99,1.98-1.51,3.22-1.38l5.42,0.6    c1.9,0.21,3.28,1.87,3.16,3.77l-0.78,11.77l3.1,6.42c0.39,0.79,0.69,1.66,0.9,2.58l1.66,7.62c0.37,1.78-0.75,3.53-2.51,3.91    c-0.21,0.05-0.44,0.08-0.71,0.08c-1.55,0-2.9-1.1-3.21-2.62l-1.57-7.61c-0.13-0.64-0.32-1.26-0.59-1.86l-1.34-3.09    c0.16,2.2-0.21,4.45-1.07,6.49l-2.9,6.92c-0.33,0.79-0.98,1.42-1.77,1.73C35.66,53.93,35.28,54,34.9,54z M36.1,23.5    c0.09,0,0.18,0.01,0.27,0.04c0.42,0.12,0.71,0.49,0.73,0.92l0.59,13.68c0.09,2.2-0.34,4.41-1.23,6.4l-2.61,5.84    c-0.07,0.15-0.1,0.31-0.1,0.47c0,0.45,0.26,0.85,0.67,1.05c0.28,0.13,0.6,0.14,0.89,0.03c0.3-0.11,0.53-0.34,0.65-0.63l2.9-6.92    c0.74-1.76,1.05-3.69,0.92-5.58l-0.42-5.86c-0.03-0.49,0.29-0.93,0.76-1.04c0.47-0.12,0.96,0.13,1.16,0.57l3.67,8.48    c0.32,0.73,0.56,1.49,0.71,2.26l1.57,7.6c0.12,0.59,0.65,1.02,1.25,1.02c0.11,0,0.19-0.01,0.25-0.02c0.01,0,0.02-0.01,0.04-0.01    c0.33-0.07,0.62-0.27,0.81-0.56c0.19-0.29,0.25-0.64,0.18-0.98l-1.66-7.61c-0.17-0.76-0.42-1.48-0.74-2.13l-3.22-6.67    c-0.08-0.16-0.11-0.33-0.1-0.5l0.8-12.03c0.06-0.83-0.55-1.56-1.38-1.65l-5.42-0.6c-0.54-0.07-1.08,0.17-1.4,0.6L28.7,30.02    c-0.14,0.19-0.21,0.4-0.21,0.63c0,0.32,0.14,0.62,0.4,0.82c0.09,0.07,0.19,0.13,0.28,0.16c0.47,0.17,0.98,0.01,1.25-0.39l4.87-7.3    C35.46,23.66,35.77,23.5,36.1,23.5z"/></g><g><path d="M51.31,31.57c-0.3,0.57-0.88,0.89-1.49,0.89c-0.25,0-0.52-0.06-0.76-0.18l-3.84-1.91l0.28-4.1l5.17,3.03    C51.46,29.76,51.75,30.76,51.31,31.57z" fill="#FFD23F"/><path d="M49.82,33.46c-0.42,0-0.83-0.1-1.21-0.29l-3.84-1.91c-0.36-0.18-0.58-0.56-0.55-0.96l0.28-4.1    c0.02-0.35,0.22-0.65,0.53-0.82s0.67-0.15,0.97,0.02l5.17,3.03c1.26,0.74,1.71,2.32,1.02,3.6C51.73,32.91,50.82,33.46,49.82,33.46    z M46.26,29.77l3.24,1.61c0.34,0.17,0.76,0.03,0.92-0.28c0,0,0-0.01,0.01-0.01c0.18-0.33,0.06-0.74-0.26-0.93l-3.78-2.21    L46.26,29.77z"/></g><g><line fill="#FFD23F" x1="45.22" x2="45.17" y1="30.37" y2="30.34"/><path d="M45.2,31.36c-0.17,0-0.34-0.04-0.5-0.14l-0.05-0.03c-0.47-0.29-0.63-0.9-0.34-1.37c0.29-0.47,0.9-0.63,1.37-0.34    c0.47,0.29,0.65,0.91,0.37,1.39C45.86,31.18,45.54,31.36,45.2,31.36z"/></g><g><path d="M23.94,38.51l-8.76,10.93c-0.86-0.69-2.12-0.55-2.81,0.31l-3.16-2.53c-0.84-0.68-0.98-1.9-0.3-2.74    l8.78-10.97L23.94,38.51z" fill="#2CD8CC"/><path d="M12.37,50.75c-0.22,0-0.44-0.07-0.62-0.22L8.59,48c-0.62-0.5-1-1.2-1.09-1.98c-0.09-0.78,0.14-1.56,0.64-2.17l8.78-10.97    c0.35-0.43,0.97-0.5,1.41-0.16l6.25,5c0.21,0.17,0.34,0.41,0.37,0.67c0.03,0.26-0.05,0.53-0.21,0.74l-8.76,10.93    c-0.17,0.21-0.41,0.34-0.67,0.37c-0.26,0.03-0.53-0.05-0.73-0.21c-0.43-0.35-1.06-0.28-1.4,0.16    C12.95,50.62,12.66,50.75,12.37,50.75z M17.85,34.91L9.69,45.1c-0.16,0.2-0.23,0.45-0.21,0.69c0.03,0.25,0.15,0.48,0.35,0.64    l2.51,2.01c0.77-0.48,1.72-0.58,2.57-0.28l7.62-9.5L17.85,34.91z"/></g><g><path d="M15.5,52.25c-0.7,0.86-1.95,1-2.82,0.31c-0.86-0.69-1-1.95-0.31-2.81s1.95-1,2.81-0.31    C16.05,50.13,16.19,51.39,15.5,52.25z" fill="#E6E6E6"/><path d="M13.93,53.99c-0.66,0-1.32-0.21-1.87-0.65c-0.63-0.5-1.02-1.22-1.11-2.01c-0.09-0.8,0.14-1.58,0.64-2.2    c1.04-1.29,2.93-1.5,4.22-0.46c0.63,0.5,1.02,1.21,1.11,2.01c0.09,0.8-0.14,1.58-0.64,2.21c0,0,0,0,0,0.01    C15.68,53.61,14.81,53.99,13.93,53.99z M15.5,52.25L15.5,52.25L15.5,52.25z M13.93,50c-0.29,0-0.58,0.13-0.78,0.37    c-0.17,0.21-0.24,0.47-0.21,0.73c0.03,0.27,0.16,0.5,0.37,0.67c0.44,0.35,1.06,0.28,1.42-0.16c0.16-0.21,0.24-0.46,0.21-0.73    c-0.03-0.27-0.16-0.5-0.37-0.67C14.37,50.07,14.15,50,13.93,50z"/></g><g><path d="M23.94,39.51c-0.22,0-0.45-0.07-0.63-0.23c-0.43-0.35-0.49-0.98-0.14-1.41l4.88-5.93c0.35-0.43,0.98-0.49,1.41-0.14    c0.43,0.35,0.49,0.98,0.14,1.41l-4.88,5.93C24.52,39.38,24.23,39.51,23.94,39.51z"/></g></g></svg>